<svg width="1024" height="1024" viewBox="0 0 1024 1024" fill="none" xmlns="http://www.w3.org/2000/svg">
<rect width="1024" height="1024" fill="#8A7C31"/>
<path d="M812 512H212" stroke="white" stroke-width="60" stroke-linecap="round" stroke-linejoin="round"/>
<path d="M315.5 305.3L212 512V692C212 707.913 218.321 723.174 229.574 734.426C240.826 745.679 256.087 752 272 752H752C767.913 752 783.174 745.679 794.426 734.426C805.679 723.174 812 707.913 812 692V512L708.5 305.3C703.533 295.304 695.875 286.891 686.389 281.008C676.902 275.126 665.963 272.006 654.8 272H369.2C358.037 272.006 347.098 275.126 337.611 281.008C328.125 286.891 320.467 295.304 315.5 305.3Z" stroke="white" stroke-width="60" stroke-linecap="round" stroke-linejoin="round"/>
<path d="M332 632H332.3" stroke="white" stroke-width="60" stroke-linecap="round" stroke-linejoin="round"/>
<path d="M452 632H452.3" stroke="white" stroke-width="60" stroke-linecap="round" stroke-linejoin="round"/>
</svg>
