<svg viewBox="0 0 128 128" fill="none" xmlns="http://www.w3.org/2000/svg">
<g clip-path="url(#clip0_448_2)">
<path fill-rule="evenodd" clip-rule="evenodd" d="M64 128C99.3462 128 128 99.3462 128 64C128 28.6538 99.3462 0 64 0C28.6538 0 0 28.6538 0 64C0 99.3462 28.6538 128 64 128ZM64 118C93.8234 118 118 93.8234 118 64C118 34.1766 93.8234 10 64 10C34.1766 10 10 34.1766 10 64C10 93.8234 34.1766 118 64 118Z" fill="#CAD8C6"/>
<path d="M76.0078 94.1172C72.5182 95.0547 67.7396 95.5234 61.6719 95.5234C55.6042 95.5234 48.026 94.8073 38.9375 93.375V28.2578H61.6719V51.1875C65.0312 48.0104 69.1068 45.9922 73.8984 45.1328C75.2005 44.8984 76.3464 44.7812 77.3359 44.7812C84.1328 44.7812 89.4193 47.0599 93.1953 51.6172C96.9714 56.1745 98.8594 61.7474 98.8594 68.3359C98.8594 71.8516 97.8568 75.5104 95.8516 79.3125C91.9453 86.7083 85.3307 91.6432 76.0078 94.1172ZM72.9219 61.0312C69.5104 61.0312 65.7214 62.737 61.5547 66.1484V80.875H65.4219C68.026 80.875 70.5651 79.2995 73.0391 76.1484C75.5391 72.9714 76.7891 69.7161 76.7891 66.3828C76.7891 64.013 76.099 62.3854 74.7188 61.5C74.224 61.1875 73.625 61.0312 72.9219 61.0312Z" fill="#CAD8C6"/>
</g>
<defs>
<clipPath id="clip0_448_2">
<rect width="128" height="128" fill="white"/>
</clipPath>
</defs>
</svg>
