<svg width="512" height="512" viewBox="0 0 512 512" fill="none" xmlns="http://www.w3.org/2000/svg">
<g clip-path="url(#clip0_52_4)">
<path fill-rule="evenodd" clip-rule="evenodd" d="M256 512C397.385 512 512 397.385 512 256C512 114.615 397.385 0 256 0C114.615 0 0 114.615 0 256C0 397.385 114.615 512 256 512ZM256 472C375.294 472 472 375.294 472 256C472 136.706 375.294 40 256 40C136.706 40 40 136.706 40 256C40 375.294 136.706 472 256 472Z" fill="#C6D8C8"/>
<path d="M304.031 375.469C290.073 379.219 270.958 381.094 246.688 381.094C222.417 381.094 192.104 378.229 155.75 372.5V112.031H246.688V203.75C260.125 191.042 276.427 182.969 295.594 179.531C300.802 178.594 305.385 178.125 309.344 178.125C336.531 178.125 357.677 187.24 372.781 205.469C387.885 223.698 395.438 245.99 395.438 272.344C395.438 286.406 391.427 301.042 383.406 316.25C367.781 345.833 341.323 365.573 304.031 375.469ZM291.688 243.125C278.042 243.125 262.885 249.948 246.219 263.594V322.5H261.688C272.104 322.5 282.26 316.198 292.156 303.594C302.156 290.885 307.156 277.865 307.156 264.531C307.156 255.052 304.396 248.542 298.875 245C296.896 243.75 294.5 243.125 291.688 243.125Z" fill="#C6D8C8"/>
</g>
<defs>
<clipPath id="clip0_52_4">
<rect width="512" height="512" fill="white"/>
</clipPath>
</defs>
</svg>
