<svg viewBox="0 0 198 54" fill="none" xmlns="http://www.w3.org/2000/svg">
<g clip-path="url(#clip0_387_104)">
<g clip-path="url(#clip1_387_104)">
<path fill-rule="evenodd" clip-rule="evenodd" d="M24.5 51C37.7548 51 48.5 40.2548 48.5 27C48.5 13.7452 37.7548 3 24.5 3C11.2452 3 0.5 13.7452 0.5 27C0.5 40.2548 11.2452 51 24.5 51ZM24.5 47.25C35.6838 47.25 44.75 38.1838 44.75 27C44.75 15.8162 35.6838 6.75 24.5 6.75C13.3162 6.75 4.25 15.8162 4.25 27C4.25 38.1838 13.3162 47.25 24.5 47.25Z" fill="#CAD8C6"/>
<path d="M29.0029 38.1689C27.6943 38.5205 25.9023 38.6963 23.627 38.6963C21.3516 38.6963 18.5098 38.4277 15.1016 37.8906V13.4717H23.627V22.0703C24.8867 20.8789 26.415 20.1221 28.2119 19.7998C28.7002 19.7119 29.1299 19.668 29.501 19.668C32.0498 19.668 34.0322 20.5225 35.4482 22.2314C36.8643 23.9404 37.5723 26.0303 37.5723 28.501C37.5723 29.8193 37.1963 31.1914 36.4443 32.6172C34.9795 35.3906 32.499 37.2412 29.0029 38.1689ZM27.8457 25.7617C26.5664 25.7617 25.1455 26.4014 23.583 27.6807V33.2031H25.0332C26.0098 33.2031 26.9619 32.6123 27.8896 31.4307C28.8271 30.2393 29.2959 29.0186 29.2959 27.7686C29.2959 26.8799 29.0371 26.2695 28.5195 25.9375C28.334 25.8203 28.1094 25.7617 27.8457 25.7617Z" fill="#CAD8C6"/>
</g>
<path d="M75.5469 38.0469C74.151 38.4219 72.2396 38.6094 69.8125 38.6094C67.3854 38.6094 64.3542 38.3229 60.7188 37.75V11.7031H69.8125V20.875C71.1562 19.6042 72.7865 18.7969 74.7031 18.4531C75.224 18.3594 75.6823 18.3125 76.0781 18.3125C78.7969 18.3125 80.9115 19.224 82.4219 21.0469C83.9323 22.8698 84.6875 25.099 84.6875 27.7344C84.6875 29.1406 84.2865 30.6042 83.4844 32.125C81.9219 35.0833 79.276 37.0573 75.5469 38.0469ZM74.3125 24.8125C72.9479 24.8125 71.4323 25.4948 69.7656 26.8594V32.75H71.3125C72.3542 32.75 73.3698 32.1198 74.3594 30.8594C75.3594 29.5885 75.8594 28.2865 75.8594 26.9531C75.8594 26.0052 75.5833 25.3542 75.0312 25C74.8333 24.875 74.5938 24.8125 74.3125 24.8125ZM92.5938 9.57812C94.125 9.57812 95.2604 9.90104 96 10.5469C96.7396 11.1823 97.1042 11.9948 97.0938 12.9844C97.0938 13.974 96.6198 14.8854 95.6719 15.7188C94.7344 16.5521 93.4792 16.9688 91.9062 16.9688C89.6979 16.9688 88.3229 16.3021 87.7812 14.9688C87.625 14.5938 87.5469 14.1771 87.5469 13.7188C87.5469 13.2604 87.6562 12.7812 87.875 12.2812C88.0938 11.7812 88.4219 11.3333 88.8594 10.9375C89.8281 10.0312 91.0729 9.57812 92.5938 9.57812ZM96.8281 38H87.7812V18.5781H96.8281V38ZM102.781 36.2812C101.948 35.5 101.281 34.5208 100.781 33.3438C100.292 32.1562 100.047 30.8802 100.047 29.5156C100.047 28.151 100.182 26.9688 100.453 25.9688C100.995 23.9792 101.943 22.3073 103.297 20.9531C103.943 20.2865 104.661 19.724 105.453 19.2656C107.078 18.3177 108.792 17.8438 110.594 17.8438C112.406 17.8438 113.995 18.4427 115.359 19.6406C115.797 20.026 116.177 20.4688 116.5 20.9688L118.734 18.5781H123.859V38H118.734L116.5 34.7656C114.792 37.2865 112.203 38.5521 108.734 38.5625C107.776 38.5729 106.75 38.3854 105.656 38C104.573 37.625 103.615 37.0521 102.781 36.2812ZM115.438 24.4688C115.062 24.25 114.615 24.1406 114.094 24.1406C113.573 24.1406 113.021 24.3281 112.438 24.7031C111.865 25.0677 111.349 25.5312 110.891 26.0938C109.87 27.3542 109.359 28.6354 109.359 29.9375C109.359 30.8542 109.641 31.5 110.203 31.875C110.724 32.2188 111.516 32.1719 112.578 31.7344C113.651 31.2865 114.604 30.7083 115.438 30V24.4688ZM141.953 24.4062C139.641 23.8646 137.958 23.5938 136.906 23.5938C136.604 23.5938 136.37 23.6615 136.203 23.7969C136.047 23.9323 135.969 24.0833 135.969 24.25C135.969 24.5938 136.396 24.9427 137.25 25.2969C138.115 25.6406 138.906 25.9792 139.625 26.3125C140.344 26.6458 140.964 27.0521 141.484 27.5312C142.609 28.5729 143.172 30.125 143.172 32.1875C143.172 34.2396 142.427 35.8177 140.938 36.9219C139.448 38.026 137.432 38.5781 134.891 38.5781C132.349 38.5781 130.318 38.3438 128.797 37.875C128.13 37.6771 127.62 37.4427 127.266 37.1719V31.375C127.411 31.3854 127.667 31.4531 128.031 31.5781C128.396 31.7031 129 31.901 129.844 32.1719C130.688 32.4323 131.453 32.5625 132.141 32.5625C132.839 32.5625 133.188 32.3073 133.188 31.7969C133.188 31.401 132.875 31.0156 132.25 30.6406C131.969 30.474 131.651 30.3021 131.297 30.125C129.828 29.4062 128.776 28.5781 128.141 27.6406C127.516 26.6927 127.203 25.5833 127.203 24.3125C127.203 22.0521 128.12 20.3646 129.953 19.25C131.495 18.3125 133.51 17.8438 136 17.8438C137.74 17.8438 139.484 18.0156 141.234 18.3594C141.609 18.4323 141.849 18.4844 141.953 18.5156V24.4062ZM157.578 17.875C158.818 17.875 160.094 18.0781 161.406 18.4844V11.7031H170.5V38H164.703L162.469 34.7656C160.562 37.2865 158.057 38.5469 154.953 38.5469C152.464 38.5469 150.286 37.7031 148.422 36.0156C146.568 34.3177 145.641 32.1458 145.641 29.5C145.641 26.8542 146.182 24.6771 147.266 22.9688C149.411 19.5729 152.849 17.875 157.578 17.875ZM161.406 24.4688C161.052 24.25 160.667 24.1406 160.25 24.1406C159.833 24.1406 159.432 24.224 159.047 24.3906C158.255 24.7344 157.547 25.2917 156.922 26.0625C156.589 26.4375 156.307 26.8385 156.078 27.2656C155.578 28.1823 155.328 29.0938 155.328 30C155.328 30.8958 155.604 31.5208 156.156 31.875C156.354 32 156.594 32.0677 156.875 32.0781C158.229 32.0781 159.74 31.3958 161.406 30.0312V24.4688ZM187.734 24.1094C187.526 24.0052 187.255 23.9531 186.922 23.9531C186.599 23.9531 186.24 24.0521 185.844 24.25C185.448 24.4375 185.057 24.6979 184.672 25.0312C183.859 25.7396 183.177 26.599 182.625 27.6094C182.073 28.6198 181.797 29.5521 181.797 30.4062C181.797 31.25 182.12 31.8177 182.766 32.1094C182.995 32.2135 183.276 32.2656 183.609 32.2656C183.943 32.2656 184.292 32.1667 184.656 31.9688C185.021 31.7604 185.385 31.4844 185.75 31.1406C186.51 30.4219 187.177 29.5521 187.75 28.5312C188.323 27.5 188.609 26.5781 188.609 25.7656C188.609 24.9531 188.318 24.401 187.734 24.1094ZM184.703 38.5781C181.724 38.5781 179.156 37.6354 177 35.75C174.698 33.75 173.547 31.2344 173.547 28.2031C173.547 25.1615 174.625 22.6771 176.781 20.75C178.938 18.8125 181.599 17.8438 184.766 17.8438C187.932 17.8438 190.594 18.7917 192.75 20.6875C194.906 22.5729 195.99 25.099 196 28.2656C196.01 30.2969 195.495 32.0938 194.453 33.6562C193.411 35.2188 192.021 36.4271 190.281 37.2812C188.542 38.1354 186.682 38.5677 184.703 38.5781Z" fill="#CAD8C6"/>
</g>
<defs>
<clipPath id="clip0_387_104">
<rect width="197" height="54" fill="white" transform="translate(0.5)"/>
</clipPath>
<clipPath id="clip1_387_104">
<rect width="48" height="48" fill="white" transform="translate(0.5 3)"/>
</clipPath>
</defs>
</svg>
