<?xml version="1.0" standalone="no"?>
<!DOCTYPE svg PUBLIC "-//W3C//DTD SVG 20010904//EN"
 "http://www.w3.org/TR/2001/REC-SVG-20010904/DTD/svg10.dtd">
<svg version="1.0" xmlns="http://www.w3.org/2000/svg"
 width="700.000000pt" height="700.000000pt" viewBox="0 0 700.000000 700.000000"
 preserveAspectRatio="xMidYMid meet">
<metadata>
Created by potrace 1.14, written by Peter Selinger 2001-2017
</metadata>
<g transform="translate(0.000000,700.000000) scale(0.100000,-0.100000)"
fill="#000000" stroke="none">
<path d="M3278 6996 c-1 -2 -42 -6 -89 -10 -47 -4 -95 -8 -105 -10 -10 -2 -45
-7 -78 -11 -151 -18 -422 -81 -585 -135 -678 -225 -1250 -627 -1685 -1184
-158 -201 -328 -483 -421 -696 -25 -58 -50 -114 -55 -125 -45 -93 -150 -427
-176 -560 -2 -11 -10 -54 -19 -95 -29 -147 -35 -193 -52 -370 -15 -163 -8
-592 12 -711 2 -13 6 -46 9 -74 37 -328 168 -746 339 -1085 61 -122 169 -312
187 -330 3 -3 31 -43 62 -90 156 -234 399 -499 648 -707 81 -67 304 -233 314
-233 3 0 32 -18 65 -40 33 -22 63 -40 67 -40 4 0 15 -6 23 -14 9 -7 81 -47
161 -88 354 -181 736 -303 1109 -354 25 -3 57 -8 71 -10 163 -25 682 -25 842
1 13 2 46 7 73 10 71 10 87 13 115 18 14 3 43 8 65 12 325 59 741 212 1039
384 49 28 91 51 93 51 10 0 268 180 353 247 152 119 324 280 450 422 36 41 70
79 76 85 29 30 185 242 240 326 120 184 241 412 315 597 66 163 147 422 175
558 16 79 54 301 59 350 4 33 9 71 11 85 9 47 11 525 3 605 -15 165 -21 220
-24 225 -2 3 -6 30 -10 60 -3 30 -10 71 -15 90 -5 19 -12 51 -15 70 -13 75
-67 275 -106 392 -349 1038 -1164 1854 -2204 2206 -167 56 -419 119 -555 137
-19 3 -46 7 -60 10 -13 2 -54 7 -90 11 -36 3 -76 8 -90 11 -27 5 -536 14 -542
9z m382 -550 c135 -5 289 -24 430 -53 41 -8 82 -16 90 -18 158 -32 436 -133
620 -225 320 -160 536 -315 785 -564 364 -364 602 -764 749 -1256 28 -95 71
-281 80 -350 3 -25 8 -55 10 -67 4 -20 13 -100 22 -198 4 -51 5 -380 0 -420
-2 -16 -7 -66 -11 -110 -4 -44 -8 -82 -10 -85 -1 -3 -6 -32 -10 -65 -3 -32 -8
-62 -10 -65 -2 -3 -6 -26 -10 -50 -9 -62 -58 -247 -94 -355 -78 -235 -185
-457 -327 -678 -39 -61 -148 -211 -164 -227 -3 -3 -25 -30 -49 -60 -72 -89
-309 -321 -411 -402 -375 -296 -787 -492 -1240 -587 -129 -28 -207 -39 -390
-57 -45 -4 -395 -4 -435 0 -16 2 -61 6 -100 10 -557 56 -1092 280 -1555 650
-135 108 -384 366 -482 501 -4 5 -18 24 -31 40 -138 176 -339 558 -407 775
-27 83 -62 197 -65 210 -26 111 -44 193 -50 230 -4 25 -9 52 -10 60 -7 40 -15
101 -21 160 -3 36 -8 74 -10 85 -5 23 -5 396 0 440 2 17 6 62 10 100 46 451
206 901 461 1295 64 99 174 247 234 315 47 53 289 294 321 320 14 11 48 38 75
61 190 155 473 323 705 419 155 64 439 151 555 170 17 3 53 10 80 15 28 5 75
12 105 16 30 3 64 8 75 10 11 3 85 7 165 11 80 3 146 7 148 8 2 2 11 1 20 -1
9 -1 78 -5 152 -8z"/>
<path d="M2134 5451 c-2 -2 -4 -805 -4 -1783 l0 -1778 23 -1 c12 0 31 -2 42
-5 26 -5 365 -51 435 -59 97 -11 124 -14 195 -21 379 -36 756 -36 1075 0 30 4
66 9 80 11 14 3 36 7 50 10 66 12 92 19 190 47 320 94 558 232 765 442 262
267 419 625 418 956 0 253 -44 453 -145 655 -166 332 -409 525 -758 601 -89
19 -330 27 -415 13 -248 -40 -470 -137 -648 -282 -32 -26 -59 -47 -61 -47 -2
0 -4 262 -4 583 -1 320 -1 600 -1 622 l-1 40 -616 0 c-339 0 -618 -2 -620 -4z
m1954 -1818 c72 -47 102 -117 107 -248 9 -218 -85 -433 -277 -633 -74 -77
-144 -125 -223 -153 -48 -17 -83 -21 -185 -21 -69 0 -129 1 -135 1 -6 1 -10
141 -9 402 l0 401 65 50 c75 58 202 135 277 167 152 64 311 78 380 34z"/>
</g>
</svg>
