<?xml version="1.0" standalone="no"?>
<!DOCTYPE svg PUBLIC "-//W3C//DTD SVG 20010904//EN"
 "http://www.w3.org/TR/2001/REC-SVG-20010904/DTD/svg10.dtd">
<svg version="1.0" xmlns="http://www.w3.org/2000/svg"
 width="700.000000pt" height="700.000000pt" viewBox="0 0 700.000000 700.000000"
 preserveAspectRatio="xMidYMid meet">
<metadata>
Created by potrace 1.14, written by Peter Selinger 2001-2017
</metadata>
<g transform="translate(0.000000,700.000000) scale(0.100000,-0.100000)"
fill="#000000" stroke="none">
<path d="M3278 6996 c-1 -2 -42 -6 -89 -10 -47 -4 -95 -8 -105 -10 -10 -2 -48
-7 -84 -12 -36 -4 -67 -8 -70 -9 -3 -1 -25 -5 -50 -9 -25 -4 -101 -21 -170
-38 -69 -16 -134 -31 -146 -34 -12 -2 -68 -19 -125 -38 -615 -202 -1126 -535
-1555 -1012 -221 -245 -445 -591 -569 -874 -25 -58 -50 -114 -55 -125 -45 -93
-150 -427 -176 -560 -2 -11 -10 -54 -19 -95 -29 -147 -35 -193 -52 -370 -15
-163 -8 -592 12 -711 2 -13 6 -46 9 -74 37 -328 168 -746 339 -1085 61 -122
169 -312 187 -330 3 -3 31 -43 62 -90 156 -234 399 -499 648 -707 81 -67 304
-233 314 -233 3 0 32 -18 65 -40 33 -22 63 -40 67 -40 4 0 15 -6 23 -14 9 -7
81 -47 161 -88 354 -181 736 -303 1109 -354 25 -3 57 -8 71 -10 163 -25 682
-25 842 1 13 2 46 7 73 10 71 10 87 13 115 18 14 3 43 8 65 12 325 59 741 212
1039 384 49 28 91 51 93 51 10 0 268 180 353 247 152 119 324 280 450 422 36
41 70 79 76 85 29 30 185 242 240 326 120 184 241 412 315 597 66 163 147 422
175 558 16 79 54 301 59 350 4 33 9 71 11 85 9 47 11 525 3 605 -15 165 -21
220 -24 225 -2 3 -6 30 -10 60 -3 30 -10 71 -15 90 -5 19 -12 51 -15 70 -13
77 -66 272 -106 390 -350 1041 -1163 1856 -2204 2208 -167 56 -419 119 -555
137 -19 3 -46 7 -60 10 -13 2 -54 7 -90 11 -36 3 -76 8 -90 11 -27 5 -536 14
-542 9z m382 -550 c135 -5 289 -24 430 -53 41 -8 82 -16 90 -18 158 -32 436
-133 620 -225 320 -160 536 -315 785 -564 364 -364 602 -764 749 -1256 28 -95
71 -281 80 -350 3 -25 8 -55 10 -67 4 -20 13 -100 22 -198 4 -51 5 -380 0
-420 -2 -16 -7 -66 -11 -110 -4 -44 -8 -82 -10 -85 -1 -3 -6 -32 -10 -65 -3
-32 -8 -62 -10 -65 -2 -3 -6 -26 -10 -50 -9 -62 -58 -247 -94 -355 -78 -235
-185 -457 -327 -678 -39 -61 -148 -211 -164 -227 -3 -3 -25 -30 -49 -60 -72
-89 -309 -321 -411 -402 -375 -296 -787 -492 -1240 -587 -129 -28 -207 -39
-390 -57 -45 -4 -395 -4 -435 0 -16 2 -61 6 -100 10 -557 56 -1092 280 -1555
650 -135 108 -384 366 -482 501 -4 5 -18 24 -31 40 -138 176 -339 558 -407
775 -27 83 -62 197 -65 210 -26 111 -44 193 -50 230 -4 25 -9 52 -10 60 -7 40
-15 101 -21 160 -3 36 -8 74 -10 85 -5 23 -5 396 0 440 2 17 6 62 10 100 46
451 206 901 461 1295 64 99 174 247 234 315 47 53 289 294 321 320 14 11 48
38 75 61 190 155 473 323 705 419 155 64 439 151 555 170 17 3 53 10 80 15 28
5 75 12 105 16 30 3 64 8 75 10 11 3 85 7 165 11 80 3 146 7 148 8 2 2 11 1
20 -1 9 -1 78 -5 152 -8z"/>
<path d="M2132 3687 c2 -1179 6 -1782 13 -1783 10 0 126 -17 135 -19 3 -1 30
-5 60 -9 30 -4 66 -9 80 -11 60 -9 211 -27 350 -40 36 -4 79 -9 95 -11 135
-16 681 -26 840 -15 210 15 422 53 570 103 476 160 785 415 985 814 33 66 60
127 60 135 0 8 4 19 8 25 7 8 31 77 37 109 2 6 11 46 20 90 29 130 24 365 -11
530 -9 39 -17 78 -19 88 -9 39 -49 146 -86 226 -134 290 -386 516 -659 594
-316 89 -638 59 -935 -89 -81 -40 -186 -110 -271 -179 l-32 -26 0 578 c-1 318
-1 599 -1 625 l-1 48 -620 0 -620 -1 2 -1782z m1944 -33 c70 -33 113 -119 119
-239 8 -136 -32 -301 -97 -410 -136 -224 -274 -355 -422 -399 -49 -15 -305
-22 -307 -9 0 4 -2 184 -2 398 l-2 390 35 34 c42 41 172 127 255 168 166 83
331 109 421 67z"/>
</g>
</svg>
