<svg viewBox="0 0 1024 1024" fill="none" xmlns="http://www.w3.org/2000/svg">
<rect width="1024" height="1024" fill="#8A3131"/>
<path d="M782 392C781.989 381.478 779.212 371.144 773.946 362.035C768.681 352.925 761.112 345.361 752 340.1L542 220.1C532.879 214.834 522.532 212.062 512 212.062C501.468 212.062 491.121 214.834 482 220.1L272 340.1C262.888 345.361 255.319 352.925 250.054 362.035C244.788 371.144 242.011 381.478 242 392V632C242.011 642.522 244.788 652.856 250.054 661.965C255.319 671.074 262.888 678.639 272 683.9L482 803.9C491.121 809.166 501.468 811.938 512 811.938C522.532 811.938 532.879 809.166 542 803.9L752 683.9C761.112 678.639 768.681 671.074 773.946 661.965C779.212 652.856 781.989 642.522 782 632V392Z" stroke="white" stroke-width="60" stroke-linecap="round" stroke-linejoin="round"/>
<path d="M251 362L512 512L773 362" stroke="white" stroke-width="60" stroke-linecap="round" stroke-linejoin="round"/>
<path d="M512 812V512" stroke="white" stroke-width="60" stroke-linecap="round" stroke-linejoin="round"/>
</svg>
